# xmcd
#
# Track frame offsets: 
#        150
#        16014
#        31062
#        46271
#        61166
#        78896
#        93292
#        105745
#        124878
#        140488
#        158924
#        175802
#
# Disc length: 2583 seconds
#
# Revision: 0
# Processed by: cddbd v1.5.2PL0 Copyright (c) Steve Scherf et al.
# Submitted via: ExactAudioCopy v1.3
#
DISCID=890a150c
DTITLE=Altered Five Blues Band - Ten Thousand Watts
DYEAR=2019
DGENRE=Blues
TTITLE0=Right on, Right On
TTITLE1=Too Mad to Make Up
TTITLE2=Ten Thousand Watts
TTITLE3=Mischief Man
TTITLE4=Great Minds Drink Alike
TTITLE5=Don't Rock My Blues
TTITLE6=Sweet Marie
TTITLE7=Dollars and Demons
TTITLE8=I Hate to Leave You (with a 6-Pack in the Fridge)
TTITLE9=Let Me Do the Wrong Thing
TTITLE10=Half of Nothing
TTITLE11=Let Me Be Gone
EXTD=
EXTT0=
EXTT1=
EXTT2=
EXTT3=
EXTT4=
EXTT5=
EXTT6=
EXTT7=
EXTT8=
EXTT9=
EXTT10=
EXTT11=
PLAYORDER=
